<svg width="402" height="280" viewBox="0 0 402 280" fill="none" xmlns="http://www.w3.org/2000/svg"><g id="Frame_2147224838" xmlns="http://www.w3.org/2000/svg"><g clip-path="url(#clip155_76_1217)"><rect width="402" height="280" rx="12" id="Frame_2147224838_bg_0" fill="#141414"></rect><g id="Frame_64" transform="translate(165)"><g id="Union_2" filter="url(#filter58_d_76_1217)" transform="translate(21.2999 21.2999)"><path d="M144.949 2.88148e-05C167.289 2.88148e-05 185.4 18.1099 185.4 40.4496C185.4 60.3318 171.055 76.8635 152.15 80.2606V104.523C156.716 104.569 160.731 104.712 164.152 105.172C169.477 105.888 174.426 107.483 178.422 111.478L178.42 111.479C182.416 115.474 184.01 120.423 184.726 125.748C185.414 130.867 185.4 137.316 185.4 144.949C185.4 152.583 185.414 159.033 184.726 164.152C184.01 169.477 182.415 174.424 178.42 178.419L178.422 178.42C174.426 182.416 169.477 184.01 164.152 184.726C159.033 185.414 152.583 185.4 144.949 185.4C137.316 185.4 130.866 185.414 125.748 184.726C120.423 184.01 115.474 182.416 111.479 178.42L111.478 178.422C107.483 174.426 105.888 169.477 105.172 164.152C104.712 160.731 104.569 156.715 104.523 152.149H80.877C80.8306 156.715 80.6865 160.731 80.2266 164.152C79.5329 169.311 78.0157 174.117 74.2887 178.044L73.9219 178.422C69.9267 182.417 64.9774 184.01 59.652 184.726C54.5335 185.414 48.0832 185.4 40.4496 185.4C32.8163 185.4 26.3669 185.414 21.2485 184.726C15.923 184.01 10.9738 182.417 6.97854 178.422C2.98295 174.426 1.3887 169.477 0.672685 164.152C-0.0154691 159.033 2.88148e-05 152.583 2.88148e-05 144.949C2.82582e-05 137.316 -0.0154608 130.866 0.672685 125.748C1.38867 120.423 2.98292 115.473 6.97854 111.478L7.35589 111.11C11.2835 107.384 16.0894 105.866 21.2485 105.172C26.3669 104.484 32.8163 104.5 40.4496 104.5C48.0832 104.5 54.5335 104.484 59.652 105.172C64.9775 105.888 69.9266 107.483 73.9219 111.478L74.2887 111.856C78.0156 115.783 79.533 120.589 80.2266 125.748C80.6865 129.169 80.8306 133.184 80.877 137.749H104.523C104.569 133.184 104.712 129.169 105.172 125.748C105.888 120.423 107.483 115.473 111.478 111.478L111.856 111.111C115.783 107.384 120.589 105.866 125.748 105.172C129.169 104.712 133.184 104.569 137.75 104.523V80.2606C121.182 77.2839 108.116 64.2182 105.139 47.6496H80.877C80.8306 52.2157 80.6865 56.2313 80.2266 59.652C79.5329 64.8109 78.0162 69.6169 74.2899 73.5446L73.9219 73.9219C69.9266 77.9171 64.9774 79.5106 59.652 80.2266C54.5335 80.9147 48.0832 80.9004 40.4496 80.9004C32.8162 80.9004 26.3669 80.9147 21.2485 80.2266C16.0895 79.533 11.2836 78.0161 7.35589 74.2899L6.97854 73.9219C2.98331 69.9266 1.38872 64.9774 0.672685 59.652C-0.0154694 54.5335 2.88148e-05 48.0832 2.88148e-05 40.4496C2.82552e-05 32.8162 -0.0154613 26.3669 0.672685 21.2485C1.38869 15.9229 2.9832 10.974 6.97854 6.97854C10.974 2.9832 15.9229 1.38869 21.2485 0.672685C26.3669 -0.0154613 32.8162 2.82552e-05 40.4496 2.88148e-05C48.0832 2.88148e-05 54.5335 -0.0154694 59.652 0.672685C64.9774 1.38872 69.9266 2.98331 73.9219 6.97854L74.2899 7.35589C78.0161 11.2836 79.533 16.0895 80.2266 21.2485C80.6865 24.669 80.8306 28.6841 80.877 33.2496H105.139C108.536 14.3452 125.067 0.000422942 144.949 2.88148e-05Z" id="Union_2_bg_0" fill="#A45CFF" fill-opacity="0.2" shape-rendering="crispEdges"></path><path d="M144.949 2.88148e-05C167.289 2.88148e-05 185.4 18.1099 185.4 40.4496C185.4 60.3318 171.055 76.8635 152.15 80.2606V104.523C156.716 104.569 160.731 104.712 164.152 105.172C169.477 105.888 174.426 107.483 178.422 111.478L178.42 111.479C182.416 115.474 184.01 120.423 184.726 125.748C185.414 130.867 185.4 137.316 185.4 144.949C185.4 152.583 185.414 159.033 184.726 164.152C184.01 169.477 182.415 174.424 178.42 178.419L178.422 178.42C174.426 182.416 169.477 184.01 164.152 184.726C159.033 185.414 152.583 185.4 144.949 185.4C137.316 185.4 130.866 185.414 125.748 184.726C120.423 184.01 115.474 182.416 111.479 178.42L111.478 178.422C107.483 174.426 105.888 169.477 105.172 164.152C104.712 160.731 104.569 156.715 104.523 152.149H80.877C80.8306 156.715 80.6865 160.731 80.2266 164.152C79.5329 169.311 78.0157 174.117 74.2887 178.044L73.9219 178.422C69.9267 182.417 64.9774 184.01 59.652 184.726C54.5335 185.414 48.0832 185.4 40.4496 185.4C32.8163 185.4 26.3669 185.414 21.2485 184.726C15.923 184.01 10.9738 182.417 6.97854 178.422C2.98295 174.426 1.3887 169.477 0.672685 164.152C-0.0154691 159.033 2.88148e-05 152.583 2.88148e-05 144.949C2.82582e-05 137.316 -0.0154608 130.866 0.672685 125.748C1.38867 120.423 2.98292 115.473 6.97854 111.478L7.35589 111.11C11.2835 107.384 16.0894 105.866 21.2485 105.172C26.3669 104.484 32.8163 104.5 40.4496 104.5C48.0832 104.5 54.5335 104.484 59.652 105.172C64.9775 105.888 69.9266 107.483 73.9219 111.478L74.2887 111.856C78.0156 115.783 79.533 120.589 80.2266 125.748C80.6865 129.169 80.8306 133.184 80.877 137.749H104.523C104.569 133.184 104.712 129.169 105.172 125.748C105.888 120.423 107.483 115.473 111.478 111.478L111.856 111.111C115.783 107.384 120.589 105.866 125.748 105.172C129.169 104.712 133.184 104.569 137.75 104.523V80.2606C121.182 77.2839 108.116 64.2182 105.139 47.6496H80.877C80.8306 52.2157 80.6865 56.2313 80.2266 59.652C79.5329 64.8109 78.0162 69.6169 74.2899 73.5446L73.9219 73.9219C69.9266 77.9171 64.9774 79.5106 59.652 80.2266C54.5335 80.9147 48.0832 80.9004 40.4496 80.9004C32.8162 80.9004 26.3669 80.9147 21.2485 80.2266C16.0895 79.533 11.2836 78.0161 7.35589 74.2899L6.97854 73.9219C2.98331 69.9266 1.38872 64.9774 0.672685 59.652C-0.0154694 54.5335 2.88148e-05 48.0832 2.88148e-05 40.4496C2.82552e-05 32.8162 -0.0154613 26.3669 0.672685 21.2485C1.38869 15.9229 2.9832 10.974 6.97854 6.97854C10.974 2.9832 15.9229 1.38869 21.2485 0.672685C26.3669 -0.0154613 32.8162 2.82552e-05 40.4496 2.88148e-05C48.0832 2.88148e-05 54.5335 -0.0154694 59.652 0.672685C64.9774 1.38872 69.9266 2.98331 73.9219 6.97854L74.2899 7.35589C78.0161 11.2836 79.533 16.0895 80.2266 21.2485C80.6865 24.669 80.8306 28.6841 80.877 33.2496H105.139C108.536 14.3452 125.067 0.000422942 144.949 2.88148e-05Z" stroke="url(#paint215_linear_76_1217)" stroke-linecap="round" stroke-linejoin="round" shape-rendering="crispEdges" /></g></g><g id="Ellipse_1961" filter="url(#filter59_f_76_1217)" transform="translate(415.136 -72.4101) rotate(44.0939)"><ellipse cx="172.479" cy="241.801" rx="172.479" ry="241.801" fill="url(#paint216_linear_76_1217)" /></g><g id="Frame_2147224836" transform="translate(25 25)"><rect x="0.5" y="0.5" width="41" height="41" rx="7.5" fill="url(#paint217_linear_76_1217)" /><rect x="0.5" y="0.5" width="41" height="41" rx="7.5" stroke="url(#paint218_linear_76_1217)" /><g id="Frame_65" filter="url(#filter60_d_76_1217)" transform="translate(9 9)"><path id="Vector_237" transform="translate(14 3)" d="M7 3.5C7 5.433 5.433 7 3.5 7C1.567 7 0 5.433 0 3.5C0 1.567 1.567 0 3.5 0C5.433 0 7 1.567 7 3.5Z" fill="#A45CFF" stroke="#A45CFF" stroke-width="2" /><path id="Vector_238" transform="translate(3 3)" d="M0 3.5C0 1.85008 -1.07288e-07 1.02513 0.51256 0.51256C1.02513 -1.07288e-07 1.85008 0 3.5 0C5.14992 0 5.97487 -1.07288e-07 6.48744 0.51256C7 1.02513 7 1.85008 7 3.5C7 5.14992 7 5.97487 6.48744 6.48744C5.97487 7 5.14992 7 3.5 7C1.85008 7 1.02513 7 0.51256 6.48744C-1.07288e-07 5.97487 0 5.14992 0 3.5Z" fill="#A45CFF" stroke="#A45CFF" stroke-width="2" /><path id="Vector_239" transform="translate(3 14)" d="M0 3.5C0 1.8501 -1.07288e-07 1.0251 0.51256 0.5126C1.02513 -7.15256e-08 1.85008 0 3.5 0C5.14992 0 5.97487 -7.15256e-08 6.48744 0.5126C7 1.0251 7 1.8501 7 3.5C7 5.1499 7 5.9749 6.48744 6.4874C5.97487 7 5.14992 7 3.5 7C1.85008 7 1.02513 7 0.51256 6.4874C-1.07288e-07 5.9749 0 5.1499 0 3.5Z" fill="#A45CFF" stroke="#A45CFF" stroke-width="2" /><path id="Vector_240" transform="translate(14 14)" d="M0 3.5C0 1.8501 -7.15256e-08 1.0251 0.5126 0.5126C1.0251 -7.15256e-08 1.8501 0 3.5 0C5.1499 0 5.9749 -7.15256e-08 6.4874 0.5126C7 1.0251 7 1.8501 7 3.5C7 5.1499 7 5.9749 6.4874 6.4874C5.9749 7 5.1499 7 3.5 7C1.8501 7 1.0251 7 0.5126 6.4874C-7.15256e-08 5.9749 0 5.1499 0 3.5Z" fill="#A45CFF" stroke="#A45CFF" stroke-width="2" /><path id="Vector_241" transform="translate(10 6.5)" d="M7.5 3.5V7.5M4 11H0M0 0H4" stroke="#A45CFF" stroke-width="2" stroke-linecap="round" stroke-linejoin="round" /></g></g><g id="Ellipse_1962" opacity="0.4" filter="url(#filter61_f_76_1217)" transform="translate(64 -57)"><ellipse cx="140" cy="67" rx="140" ry="67" id="Ellipse_1962_bg_0" fill="#A45CFF"></ellipse></g><g id="Ellipse_1963" opacity="0.2" filter="url(#filter62_f_76_1217)" transform="translate(143 -20)"><ellipse cx="61" cy="27" rx="61" ry="27" id="Ellipse_1963_bg_0" fill="white"></ellipse></g></g><rect x="0.5" y="0.5" width="401" height="279" rx="11.5" stroke="url(#paint219_linear_76_1217)" /></g><defs><linearGradient id="paint218_linear_76_1217" x1="21" y1="42" x2="21" y2="0" gradientUnits="userSpaceOnUse" xmlns="http://www.w3.org/2000/svg"><stop stop-color="#666666" stop-opacity="0" /><stop offset="1" stop-color="#666666" stop-opacity="0.32" /></linearGradient><filter id="filter61_f_76_1217" x="-78.2" y="-78.2" width="436.4" height="290.4" filterUnits="userSpaceOnUse" color-interpolation-filters="sRGB" xmlns="http://www.w3.org/2000/svg"><feFlood flood-opacity="0" result="BackgroundImageFix" /><feBlend mode="normal" in="SourceGraphic" in2="BackgroundImageFix" result="shape" /><feGaussianBlur stdDeviation="39.1" result="effect1_foregroundBlur_76_1217" /></filter><filter id="filter59_f_76_1217" x="-265.896" y="-196.622" width="876.75" height="876.847" filterUnits="userSpaceOnUse" color-interpolation-filters="sRGB" xmlns="http://www.w3.org/2000/svg"><feFlood flood-opacity="0" result="BackgroundImageFix" /><feBlend mode="normal" in="SourceGraphic" in2="BackgroundImageFix" result="shape" /><feGaussianBlur stdDeviation="50" result="effect1_foregroundBlur_76_1217" /></filter><linearGradient id="paint219_linear_76_1217" x1="201" y1="0" x2="201" y2="239.5" gradientUnits="userSpaceOnUse" xmlns="http://www.w3.org/2000/svg"><stop stop-color="#707070" stop-opacity="0.32" /><stop offset="1" stop-color="#707070" stop-opacity="0" /></linearGradient><linearGradient id="paint216_linear_76_1217" x1="344.958" y1="270.496" x2="18.8682" y2="325.325" gradientUnits="userSpaceOnUse" xmlns="http://www.w3.org/2000/svg"><stop offset="0.769231" stop-color="#141414" /><stop offset="1" stop-color="#141414" stop-opacity="0" /></linearGradient><filter id="filter62_f_76_1217" x="-78.2" y="-78.2" width="278.4" height="210.4" filterUnits="userSpaceOnUse" color-interpolation-filters="sRGB" xmlns="http://www.w3.org/2000/svg"><feFlood flood-opacity="0" result="BackgroundImageFix" /><feBlend mode="normal" in="SourceGraphic" in2="BackgroundImageFix" result="shape" /><feGaussianBlur stdDeviation="39.1" result="effect1_foregroundBlur_76_1217" /></filter><filter id="filter58_d_76_1217" x="-4.5" y="-4.5" width="194.4" height="194.4" filterUnits="userSpaceOnUse" color-interpolation-filters="sRGB" xmlns="http://www.w3.org/2000/svg"><feFlood flood-opacity="0" result="BackgroundImageFix" /><feColorMatrix in="SourceAlpha" type="matrix" values="0 0 0 0 0 0 0 0 0 0 0 0 0 0 0 0 0 0 127 0" result="hardAlpha" /><feOffset /><feGaussianBlur stdDeviation="2" /><feComposite in2="hardAlpha" operator="out" /><feColorMatrix type="matrix" values="0 0 0 0 0.643137 0 0 0 0 0.360784 0 0 0 0 1 0 0 0 0.4 0" /><feBlend mode="normal" in2="BackgroundImageFix" result="effect1_dropShadow_76_1217" /><feBlend mode="normal" in="SourceGraphic" in2="effect1_dropShadow_76_1217" result="shape" /></filter><linearGradient id="paint217_linear_76_1217" x1="21" y1="0" x2="21" y2="42" gradientUnits="userSpaceOnUse" xmlns="http://www.w3.org/2000/svg"><stop stop-color="#2A2A2A" /><stop offset="1" stop-color="#151515" /></linearGradient><linearGradient id="paint215_linear_76_1217" x1="0.300055" y1="8.7" x2="114.3" y2="118.5" gradientUnits="userSpaceOnUse" xmlns="http://www.w3.org/2000/svg"><stop stop-color="#A45CFF" /><stop offset="1" stop-color="#3B3246" /></linearGradient><filter id="filter60_d_76_1217" x="-16" y="-16" width="56" height="56" filterUnits="userSpaceOnUse" color-interpolation-filters="sRGB" xmlns="http://www.w3.org/2000/svg"><feFlood flood-opacity="0" result="BackgroundImageFix" /><feColorMatrix in="SourceAlpha" type="matrix" values="0 0 0 0 0 0 0 0 0 0 0 0 0 0 0 0 0 0 127 0" result="hardAlpha" /><feOffset /><feGaussianBlur stdDeviation="8" /><feComposite in2="hardAlpha" operator="out" /><feColorMatrix type="matrix" values="0 0 0 0 0.643137 0 0 0 0 0.360784 0 0 0 0 1 0 0 0 1 0" /><feBlend mode="normal" in2="BackgroundImageFix" result="effect1_dropShadow_76_1217" /><feBlend mode="normal" in="SourceGraphic" in2="effect1_dropShadow_76_1217" result="shape" /></filter><clipPath id="clip155_76_1217" xmlns="http://www.w3.org/2000/svg"><rect width="402" height="280" rx="12" fill="white" /></clipPath></defs></svg>