<svg viewBox="0 0 40 40" fill="none" xmlns="http://www.w3.org/2000/svg">
<g clip-path="url(#clip0_586_2258)">
<path d="M21.9977 0C22.1215 0.0875148 23.2951 0.225121 23.5393 0.265503C24.4873 0.431143 25.4217 0.667158 26.3347 0.971527C32.8827 3.14787 37.8516 8.5383 39.4887 15.2415C39.5784 15.6083 39.9359 17.659 39.9951 17.8433L40 17.8552V22.1335C39.8662 22.4346 39.7799 23.4029 39.7054 23.7857C39.5268 24.675 39.2932 25.5524 39.006 26.4127C37.1639 31.8418 33.0873 36.2236 27.805 38.4523C26.4281 39.0349 24.9893 39.459 23.5165 39.7168C23.2921 39.7539 21.8572 39.9262 21.7639 40H18.2068C18.1004 39.9211 16.9438 39.7867 16.7155 39.7484C16.0701 39.6355 15.4293 39.4972 14.7948 39.3335C8.1738 37.5374 2.92906 32.4836 0.888824 25.9338C0.584668 24.9408 0.35227 23.9271 0.193329 22.9007C0.154956 22.6538 0.113451 21.7306 0 21.5637V18.3984C0.0793643 18.2856 0.179964 17.2257 0.217285 16.9862C0.337883 16.2225 0.496377 15.4654 0.692139 14.7174C2.46163 8.26713 7.32494 3.1203 13.6647 0.988464C14.608 0.670739 15.5748 0.427323 16.5561 0.260468C16.8034 0.219218 17.8743 0.0896668 18.0072 0H21.9977Z" fill="#EE1F24"/>
<path fill-rule="evenodd" clip-rule="evenodd" d="M10.5078 8.95171C13.0449 8.91475 15.6185 8.96368 18.1616 8.94575C19.8074 8.98165 21.4911 8.86293 23.1296 9.0312C24.3522 9.17609 25.4461 9.54758 26.4667 10.2275C28.5361 11.6063 29.1167 14.5489 28.0844 16.738C27.4061 18.1765 26.063 18.9004 24.6043 19.3883C25.031 19.4167 25.3411 19.4671 25.7497 19.5943C28.9659 20.5951 30.1423 23.7814 29.1948 26.8463C27.9781 30.2781 24.2617 31.0282 21.0257 31.0329C20.2135 31.034 19.4004 31.034 18.5883 31.0338C16.7941 31.0263 14.9999 31.0297 13.2057 31.0441L13.2033 17.9491C13.2037 16.1513 13.212 14.3483 13.2008 12.5505C13.1996 12.3532 13.1643 11.892 13.0804 11.7158C12.6649 10.843 11.5217 10.2278 10.8304 9.55412C10.5907 9.32051 10.5139 9.26931 10.5078 8.95171ZM17.1346 21.2968C17.1321 23.3724 17.0906 25.6045 17.1384 27.6655C17.9889 27.658 18.8394 27.6559 19.6899 27.6594C21.3077 27.6601 23.3112 27.7352 24.6342 26.6754C24.8763 26.4419 25.0636 26.2486 25.2264 25.9485C25.7809 24.9264 25.7218 23.2053 24.8727 22.3562C23.8972 21.3806 22.1883 21.3194 20.8945 21.3074L18.3444 21.3066C18.0808 21.3068 17.3681 21.3243 17.1346 21.2968ZM23.9455 13.2908C22.4929 11.8266 19.0441 12.4479 17.1381 12.3237L17.1317 15.8911C17.132 16.5361 17.114 17.29 17.1399 17.9281C17.9692 17.9225 18.7984 17.9213 19.6277 17.9245C21.0227 17.9265 22.6973 18.0468 23.8115 17.061C24.8584 16.0324 24.9594 14.313 23.9455 13.2908Z" fill="#FEFEFE"/>
</g>
<defs>
<clipPath id="clip0_586_2258">
<rect width="40" height="40" fill="white"/>
</clipPath>
</defs>
</svg>
