<svg preserveAspectRatio="none" overflow="visible" style="display: block;" width="38.0298" height="57.3169" viewBox="0 0 38.0298 57.3169" fill="none" xmlns="http://www.w3.org/2000/svg">
<g id="Frame" style="mix-blend-mode:luminosity" clip-path="url(#clip0_0_498)">
<path id="Vector" d="M38.0298 38.71V31.0356L0.475127 12.1557V20.5768L29.5408 34.7024L0.475127 49.0316V57.3169L38.0298 38.71ZM4.1419 0C1.83414 0 0 1.90202 0 4.20978C0 6.58692 1.83414 8.42106 4.1419 8.42106C6.45117 8.42106 8.28531 6.58692 8.28531 4.20978C8.28531 1.90202 6.45117 0 4.1419 0ZM4.1419 0.678753C5.97604 0.678753 7.4708 2.30927 7.4708 4.27765C7.4708 6.24754 5.97604 7.87806 4.1419 7.81018C2.24139 7.81018 0.746628 6.24754 0.746628 4.20978C0.746628 2.24139 2.24139 0.678753 4.1419 0.678753ZM3.3274 4.68641H3.80252C4.41491 4.68641 4.68641 4.89004 4.82216 5.50091C4.89004 6.11179 5.02579 6.51904 5.16154 6.65479H5.97604C5.90816 6.51904 5.77241 6.24754 5.70454 5.50091C5.63666 4.82216 5.36516 4.41491 4.89004 4.34703V4.27765C5.36516 4.1419 5.84029 3.73465 5.84029 3.12377C5.84029 2.71652 5.70454 2.37714 5.43304 2.17352C5.16154 1.96989 4.68641 1.83414 4.00615 1.83414C3.46315 1.83414 3.0559 1.90202 2.64864 1.96989V6.65479H3.39527V4.68641H3.3274ZM3.3274 2.44502C3.46315 2.44502 3.5989 2.37714 3.8704 2.37714C4.68641 2.37714 5.02579 2.78439 5.02579 3.19165C5.02579 3.80252 4.48278 4.00615 3.8704 4.00615H3.3274V2.44502Z" fill="white"/>
</g>
<defs>
<clipPath id="clip0_0_498">
<rect width="38.0298" height="57.3169" fill="white"/>
</clipPath>
</defs>
</svg>
